<svg xmlns="http://www.w3.org/2000/svg" width="1200" height="630" viewBox="0 0 1200 630">
  <defs>
    <linearGradient id="bg" x1="0" y1="0" x2="1" y2="1"><stop stop-color="#0d1712"/><stop offset="1" stop-color="#1f3928"/></linearGradient>
    <radialGradient id="sun"><stop stop-color="#ffe7a7"/><stop offset="1" stop-color="#f6c86b" stop-opacity="0"/></radialGradient>
  </defs>
  <rect width="1200" height="630" fill="url(#bg)"/>
  <circle cx="945" cy="150" r="170" fill="url(#sun)" opacity=".8"/>
  <g opacity=".3" fill="#a7e07f"><rect x="920" y="90" width="70" height="70"/><rect x="1020" y="210" width="42" height="42"/><rect x="850" y="260" width="30" height="30"/></g>
  <path d="M0 500L180 390 350 480 530 350 760 485 950 340 1200 460V630H0Z" fill="#315b3b"/>
  <path d="M0 540L250 450 470 545 690 430 900 535 1200 440V630H0Z" fill="#203e2a"/>
  <rect x="90" y="90" width="55" height="55" rx="10" fill="#6eb75e"/><rect x="90" y="132" width="55" height="13" rx="2" fill="#416f3b"/>
  <text x="170" y="132" fill="#f5f3ea" font-family="Arial, sans-serif" font-size="42" font-weight="700">VanillaLichtung</text>
  <text x="90" y="285" fill="#f5f3ea" font-family="Arial, sans-serif" font-size="78" font-weight="800">Vanilla.</text>
  <text x="90" y="370" fill="#a7e07f" font-family="Arial, sans-serif" font-size="78" font-weight="800">Nur mit mehr Weitblick.</text>
  <text x="94" y="430" fill="#bdc9c0" font-family="Arial, sans-serif" font-size="28">Deutscher Survival-PvE-Server · bis zu 32 Chunks Sichtweite</text>
  <rect x="90" y="484" width="335" height="65" rx="16" fill="#a7e07f"/>
  <text x="122" y="526" fill="#102018" font-family="Arial, sans-serif" font-size="27" font-weight="700">VanillaLichtung.de</text>
</svg>
